<svg xmlns="http://www.w3.org/2000/svg" viewBox="0 0 24 24">
  <path fill="#4285F4" d="M23.49 12.27c0-.79-.07-1.55-.2-2.27H12v4.51h6.45a5.52 5.52 0 0 1-2.39 3.52v2.93h3.87c2.27-2.09 3.56-5.17 3.56-8.69Z"/>
  <path fill="#34A853" d="M12 24c3.24 0 5.96-1.07 7.94-2.91l-3.87-3a7.2 7.2 0 0 1-10.72-3.79H1.36v3.02A12 12 0 0 0 12 24Z"/>
  <path fill="#FBBC05" d="M5.35 14.3A7.19 7.19 0 0 1 5 12c0-.8.14-1.58.35-2.3V6.68H1.36A12 12 0 0 0 0 12c0 1.93.46 3.75 1.36 5.32l3.99-3.02Z"/>
  <path fill="#EA4335" d="M12 4.77c1.77 0 3.35.61 4.6 1.8l3.42-3.43A11.5 11.5 0 0 0 12 0 12 12 0 0 0 1.36 6.68L5.35 9.7A7.17 7.17 0 0 1 12 4.77Z"/>
</svg>
